<svg id="visual" viewBox="0 0 960 540" width="960" height="540" xmlns="http://www.w3.org/2000/svg" xmlns:xlink="http://www.w3.org/1999/xlink" version="1.1"><rect x="0" y="0" width="960" height="540" fill="#002233"></rect><path d="M0 412L22.8 415.3C45.7 418.7 91.3 425.3 137 421.2C182.7 417 228.3 402 274 401.8C319.7 401.7 365.3 416.3 411.2 410.7C457 405 503 379 548.8 382C594.7 385 640.3 417 686 422C731.7 427 777.3 405 823 402.5C868.7 400 914.3 417 937.2 425.5L960 434L960 541L937.2 541C914.3 541 868.7 541 823 541C777.3 541 731.7 541 686 541C640.3 541 594.7 541 548.8 541C503 541 457 541 411.2 541C365.3 541 319.7 541 274 541C228.3 541 182.7 541 137 541C91.3 541 45.7 541 22.8 541L0 541Z" fill="#0066FF" stroke-linecap="round" stroke-linejoin="miter"></path></svg>